<svg viewBox="0 0 1024.83 1049.45" fill="none" xmlns="http://www.w3.org/2000/svg">
  <defs>
    <linearGradient id="bg" x1="0" y1="0" x2="1024.83" y2="1049.45" gradientUnits="userSpaceOnUse">
      <stop offset="0%" stop-color="#8b5cf6"/>
      <stop offset="100%" stop-color="#4f46e5"/>
    </linearGradient>
  </defs>
  <!-- Background fill using the squircle border path -->
  <path
    d="M514.2,1049.25l-68.56-1.61c-44.27-1.04-87.26-6.49-130.89-14.47-97.73-17.89-182.64-68.26-239.01-150.77-18.38-26.91-32.83-55.4-43.26-86.58C7.75,721.84,3.9,637.12.66,559.3c-2.37-56.96,1.94-136.41,8.81-193.35,7.52-62.32,22.65-123.99,54.01-178.82,33.64-58.82,86.45-106.3,147.03-136.29,33.92-16.79,69.3-27.32,106.46-34.42,45.4-8.68,90.35-12.6,136.43-14.78,36.73-1.74,72.35-2.4,109.08-.41l51.01,2.77c37.04,2.01,72.72,7.29,108.94,15.13,30.58,6.61,59.32,16.09,87.65,29.22,13.46,6.24,25.42,13.13,38.07,21.06,48.55,30.41,88.88,72.26,116.78,122.38,27.71,49.78,43.17,110.72,49.97,167.18,7.85,65.14,11.21,130.15,9.47,195.73-1.03,38.72-2.97,76.18-6.53,114.75-3.67,39.74-9.79,78.03-21.3,116.29-33.55,111.61-119.85,197.43-230.1,233.55-68.81,22.54-179.53,31.68-252.25,29.98Z"
    fill="url(#bg)"
  />
  <!-- Crown -->
  <path
    d="M641.35,433.47l-257.38.09-23.97-76.94-8.53-29.03c28.3,20.83,58.53,33.27,93.4,23.5,30.02-8.41,53.98-28.6,67.11-56.95l10.48,15.59c10.79,16.06,25.57,27.3,42.95,35.41,40.95,19.12,76.28,6.94,108.45-17.42l-20.24,66.89-12.26,38.87Z"
    fill="white"
  />
  <!-- Letter S -->
  <path
    d="M416.53,728.25c-20.6,27.17-61.58,30.09-90.95,19.45-34.24-12.4-43.45-47.78-42.4-80.4l53.2-5.23c-1.04,13.36.21,25.37,4.49,36.89,3.77,7.4,10.36,11.49,18.26,10.58,7.65-.88,13.46-6.89,14.68-15.35,3.6-24.88-13.79-39.49-30.87-53-11.48-9.07-22.69-17.54-33.06-27.77-17.66-17.4-25.55-40.26-23.44-64.91,1.36-15.85,6-30.7,17.23-41.86,10.51-10.45,23-17.05,37.56-19.43,14.34-2.35,28.4-2.44,42.34,1.49,33.65,9.47,44.65,42.47,44.51,75.2l-51.19,6.68-3.07-27.81c-1.98-8.37-7.6-13.76-15.65-13.88s-15.14,5.06-16.62,13.61c-3.97,22.96,11.56,35.94,26.89,48.29,12.45,10.03,24.8,19.46,36.18,30.58,17.46,17.08,26.22,39.68,25.71,63.96-.34,15.83-4.26,30.33-13.79,42.89Z"
    fill="white"
  />
  <!-- Letter Z -->
  <path
    d="M570.16,705.47l-.19,43.59-128.39-.08-.03-37.03,57.34-150.91c3.64-9.59,7.14-17.47,10.01-27.51l-64.73-.11-.53-43.36,126.47-.03c-.22,39.35,3.39,34.71-12.21,70.68l-30.48,78.43-25.54,66.31,68.28.02Z"
    fill="white"
  />
  <!-- Letter N -->
  <polygon
    points="740.93 748.85 697.11 749.03 655.42 648.48 643.05 619.95 642.83 749.01 590.12 749.1 590.13 489.86 638.68 489.96 651.95 522.22 689.58 609.64 689.92 490.06 740.9 489.95 740.93 748.85"
    fill="white"
  />
</svg>
