<svg viewBox="0 0 560 560" fill="none" xmlns="http://www.w3.org/2000/svg">
  <defs>
    <linearGradient id="bg" x1="0" y1="0" x2="560" y2="560" gradientUnits="userSpaceOnUse">
      <stop offset="0%" stop-color="#8b5cf6"/>
      <stop offset="100%" stop-color="#4f46e5"/>
    </linearGradient>
  </defs>
  <rect width="560" height="560" rx="100" fill="url(#bg)"/>
  <!-- Crown + SZN centered: bounds (283,294)-(741,749) = 458x455, centered in 560x560 -->
  <g transform="translate(-232, -241)">
    <!-- Crown -->
    <path
      d="M641.35,433.47l-257.38.09-23.97-76.94-8.53-29.03c28.3,20.83,58.53,33.27,93.4,23.5,30.02-8.41,53.98-28.6,67.11-56.95l10.48,15.59c10.79,16.06,25.57,27.3,42.95,35.41,40.95,19.12,76.28,6.94,108.45-17.42l-20.24,66.89-12.26,38.87Z"
      fill="white"
    />
    <!-- Letter S -->
    <path
      d="M416.53,728.25c-20.6,27.17-61.58,30.09-90.95,19.45-34.24-12.4-43.45-47.78-42.4-80.4l53.2-5.23c-1.04,13.36.21,25.37,4.49,36.89,3.77,7.4,10.36,11.49,18.26,10.58,7.65-.88,13.46-6.89,14.68-15.35,3.6-24.88-13.79-39.49-30.87-53-11.48-9.07-22.69-17.54-33.06-27.77-17.66-17.4-25.55-40.26-23.44-64.91,1.36-15.85,6-30.7,17.23-41.86,10.51-10.45,23-17.05,37.56-19.43,14.34-2.35,28.4-2.44,42.34,1.49,33.65,9.47,44.65,42.47,44.51,75.2l-51.19,6.68-3.07-27.81c-1.98-8.37-7.6-13.76-15.65-13.88s-15.14,5.06-16.62,13.61c-3.97,22.96,11.56,35.94,26.89,48.29,12.45,10.03,24.8,19.46,36.18,30.58,17.46,17.08,26.22,39.68,25.71,63.96-.34,15.83-4.26,30.33-13.79,42.89Z"
      fill="white"
    />
    <!-- Letter Z -->
    <path
      d="M570.16,705.47l-.19,43.59-128.39-.08-.03-37.03,57.34-150.91c3.64-9.59,7.14-17.47,10.01-27.51l-64.73-.11-.53-43.36,126.47-.03c-.22,39.35,3.39,34.71-12.21,70.68l-30.48,78.43-25.54,66.31,68.28.02Z"
      fill="white"
    />
    <!-- Letter N -->
    <polygon
      points="740.93 748.85 697.11 749.03 655.42 648.48 643.05 619.95 642.83 749.01 590.12 749.1 590.13 489.86 638.68 489.96 651.95 522.22 689.58 609.64 689.92 490.06 740.9 489.95 740.93 748.85"
      fill="white"
    />
  </g>
</svg>
